<?xml version="1.0" standalone="no"?>
<!DOCTYPE svg PUBLIC "-//W3C//DTD SVG 20010904//EN"
 "http://www.w3.org/TR/2001/REC-SVG-20010904/DTD/svg10.dtd">
<svg version="1.0" xmlns="http://www.w3.org/2000/svg"
 width="2048.000000pt" height="1536.000000pt" viewBox="0 0 2048.000000 1536.000000"
 preserveAspectRatio="xMidYMid meet">

<g transform="translate(0.000000,1536.000000) scale(0.100000,-0.100000)"
fill="#000000" stroke="none">
<path d="M0 12800 l0 -850 10240 0 10240 0 0 850 0 850 -10240 0 -10240 0 0
-850z"/>
<path d="M0 9385 l0 -855 10240 0 10240 0 0 855 0 855 -10240 0 -10240 0 0
-855z"/>
<path d="M0 5975 l0 -855 10240 0 10240 0 0 855 0 855 -10240 0 -10240 0 0
-855z"/>
<path d="M0 2560 l0 -850 10240 0 10240 0 0 850 0 850 -10240 0 -10240 0 0
-850z"/>
</g>
</svg>
